<svg width="197" height="50" viewBox="0 0 197 50" fill="none" xmlns="http://www.w3.org/2000/svg">
<path d="M59.2404 0.0884666C59.2404 0.0884666 52.1786 1.07077 45.2484 4.28714C38.3178 7.5035 25.2523 13.9037 23.3292 17.9493C21.4056 21.9948 22.2098 29.9084 26.1687 32.3018C26.1687 32.3018 24.8265 29.3887 25.0943 27.1596C25.3616 24.9305 25.2905 21.0433 30.3188 16.3177C35.3474 11.5922 36.4889 10.0767 41.4638 7.5622C47.9371 4.24577 53.8667 1.79389 59.2404 0.0884666Z" fill="white"/>
<path d="M37.2719 0.184058C37.2719 0.184058 24.6384 1.37923 16.6093 3.57263C8.58042 5.76602 4.55943 8.19491 3.87157 12.1309C3.87157 12.1309 3.13702 9.32892 4.17641 8.14329C5.21582 6.95731 7.6543 5.38484 10.2394 4.53195C12.8245 3.67906 15.5295 2.83961 20.0601 2.08007C24.5906 1.32054 30.6847 0.499825 37.2719 0.184058Z" fill="white"/>
<path d="M37.2723 0.184058C37.2723 0.184058 23.5287 1.15576 17.2926 2.80885C11.0567 4.46123 3.82468 6.31375 3.87192 12.1309C3.87192 12.1309 0.800833 7.89895 7.48778 5.06271C14.9587 1.82937 29.227 0.47083 37.2723 0.184058Z" fill="white"/>
<path d="M37.2721 0.184061C37.2721 0.184061 24.0054 0.0168076 16.5396 0.626417C9.0736 1.23603 -7.50122 2.79965 3.87179 12.1309C3.87179 12.1309 1.31868 8.72497 5.59603 6.05633C9.87352 3.38805 17.7269 2.20419 19.5452 1.91919C20.7821 1.72541 25.8266 1.03589 30.7721 0.585044C33.0955 0.373237 35.4822 0.243819 37.2721 0.184061Z" fill="white"/>
<path d="M2.24292 3.82532L5.23985 6.03003C5.23985 6.03003 8.89397 3.68353 14.0816 2.70723C20.0619 1.51382 26.0227 0.929672 31.0001 0.407755C31.0001 0.407755 24.7936 0.115683 17.7882 0.684275C10.7826 1.25251 6.42399 1.69734 2.24292 3.82532Z" fill="white"/>
<path d="M49.3339 0.648273C49.3339 0.648273 39.9497 0.450258 21.0319 4.03048C15.0044 5.08174 5.93848 8.9307 5.93848 12.8755C5.93848 16.8199 12.0251 20.4278 12.3537 20.437C10.9329 18.1238 10.7101 14.7839 13.7957 12.3345C16.8809 9.88507 22.7001 6.31793 31.9613 4.19137C41.2226 2.0641 43.6473 1.17691 49.3339 0.648273Z" fill="white"/>
<path d="M49.334 0.648066C49.334 0.648066 46.9278 0.818151 43.221 1.52995C39.1867 2.18341 33.7114 3.2032 28.5484 4.59957C18.7212 7.25795 6.55438 12.0309 12.4807 20.6255C12.4807 20.6255 8.74438 15.9619 18.4968 9.65361C23.9251 6.3591 32.9332 3.92985 38.3943 2.80257C40.9625 2.20993 42.1068 1.94366 43.3599 1.66962C44.6965 1.40336 46.0841 1.09573 49.334 0.648066Z" fill="white"/>
<path d="M49.3334 0.648066C49.3334 0.648066 33.4531 3.15723 22.1108 8.15221C10.8518 13.2296 11.2383 18.7765 12.48 20.6255C12.48 20.6255 8.45091 14.6649 19.1305 8.97999C25.6158 5.47509 33.6736 3.70885 38.3099 2.688C45.0361 1.16786 49.3334 0.648066 49.3334 0.648066Z" fill="white"/>
<path d="M9.5957 8.47481L14.2019 10.4009C14.2019 10.4009 17.7362 7.60106 24.5658 5.43701C31.3957 3.27297 35.1483 2.85607 39.7544 1.70439C39.7544 1.70439 33.3416 1.70439 26.3727 3.19341C19.4037 4.68242 15.4924 5.21848 9.5957 8.47481Z" fill="white"/>
<path d="M59.2405 0.0884666C59.2405 0.0884666 47.0624 3.83771 38.1743 10.0905C29.2864 16.3428 22.7444 24.6958 26.1686 32.3018C23.9565 27.6352 23.6229 21.0895 32.9261 12.9988C42.5625 4.84724 53.8272 1.96645 59.2405 0.0884666Z" fill="white"/>
<path d="M167.546 24.6149C167.546 26.7156 166.658 28.2305 162.981 28.2305H156.072C154.133 28.2305 151.911 27.4428 151.911 24.7361C151.911 22.0292 151.911 22.3928 151.911 21.4635C151.911 19.3425 153.164 18.1306 156.718 18.1306H163.648C165.991 18.1306 167.546 19.4839 167.546 21.6251C167.546 23.4836 167.546 24.6149 167.546 24.6149ZM164.153 15.666H156.194C150.76 15.666 148.78 18.4134 148.78 21.3221C148.78 21.3221 148.78 22.5948 148.78 25.0391C148.78 28.9577 152.093 30.6545 155.971 30.6545H163.648C169.142 30.6545 170.657 27.16 170.657 24.4734V21.908C170.657 17.0801 166.738 15.666 164.153 15.666ZM139.126 15.6912H129.936C124.624 15.6912 123.511 17.6963 123.511 20.1694C123.511 22.6428 125.106 24.1209 129.146 24.1209C132.014 24.1209 135.161 24.2819 138.307 24.2819C141.453 24.2819 142.083 25.0133 142.083 26.2135C142.083 27.4134 141.497 28.2332 139.038 28.2332H129.79C126.731 28.2332 126.599 27.4428 126.599 26.4331C126.599 26.1841 126.599 25.4235 126.599 25.4235H123.511C123.511 25.4235 123.511 25.7308 123.511 26.726C123.511 29.6529 125.824 30.6039 129.965 30.6039H138.863C144.351 30.6039 145.112 28.3209 145.112 26.2573C145.112 22.5111 142.112 21.8672 138.497 21.8672C136.404 21.8672 131.414 21.7061 128.868 21.7061C126.321 21.7061 126.57 20.5353 126.57 19.8621C126.57 19.189 126.848 18.1353 128.824 18.1353C128.824 18.1353 135.995 18.1353 138.936 18.1353C141.878 18.1353 142.039 19.0574 142.039 19.9353C142.039 19.9937 142.039 20.8718 142.039 20.8718H145.2C145.2 20.8718 145.2 20.272 145.2 19.5988C145.2 17.8572 143.985 15.6912 139.126 15.6912ZM189.267 15.6544H182.63C178.676 15.6544 177.761 16.8817 177.761 16.8817V15.6544H174.617V30.5859H177.761C177.761 30.5859 177.761 24.2421 177.761 21.4457C177.761 18.6496 179.962 18.1514 182.373 18.1514H188.978C192.497 18.1514 193.124 20.2727 193.124 21.9601H196.209C196.209 16.8015 192.352 15.6544 189.267 15.6544ZM113.256 15.6544H106.619C102.665 15.6544 101.749 16.8817 101.749 16.8817V15.6544H98.6058V30.5859H101.749C101.749 30.5859 101.749 24.2421 101.749 21.4457C101.749 18.6496 103.951 18.1514 106.362 18.1514H112.967C116.486 18.1514 117.113 20.2727 117.113 21.9601H120.198C120.198 16.8015 116.341 15.6544 113.256 15.6544ZM75.8221 20.9713C75.8221 20.9713 76.1269 18.1373 79.688 18.1373H87.3906C91.3 18.1373 91.4895 20.9713 91.4895 20.9713H75.8221ZM86.8471 15.6544H80.4196C75.8207 15.6544 72.7178 17.8098 72.7178 21.774V25.1011C72.7178 29.0965 75.727 30.5859 80.2276 30.5859H88.6557C94.504 30.5859 94.5754 26.4293 94.5754 25.383H91.4651C91.4651 27.3589 90.6897 28.2011 88.4637 28.2011H80.0735C76.4363 28.2011 75.8783 26.296 75.8783 24.9106C75.8783 24.3911 75.8783 23.4482 75.8783 23.4482H94.5754C94.5754 23.4482 94.5754 22.9285 94.5754 21.4854C94.5754 16.9245 90.696 15.6544 86.8471 15.6544ZM69.6786 9.93275L58.9648 27.7585H58.7986L48.0668 9.93275H44.4053L57.0193 30.6131H60.7725L73.3469 9.93275H69.6786Z" fill="white"/>
<path d="M59.2402 0.0884666C59.2402 0.0884666 50.2421 0.613564 36.4792 4.85467C22.7166 9.09577 14.7024 14.3461 14.7024 19.9055C14.7024 25.4648 23.5636 30.8231 26.1685 32.3018C24.2843 30.0517 20.679 24.7536 26.7865 17.5176C32.9762 10.0197 40.8413 6.94587 45.1336 5.00778C49.4264 3.07039 56.8145 0.614626 59.2402 0.0884666Z" fill="white"/>
<path d="M59.2354 0.000148773C59.2301 0.00050354 50.2246 0.526661 36.4539 4.76989C29.5672 6.89256 24.1166 9.267 20.3807 11.8129C16.647 14.3571 14.6163 17.0791 14.6145 19.9056C14.6182 22.7344 16.8546 25.4739 19.4007 27.7004C21.9495 29.9263 24.8201 31.6379 26.1251 32.3789L26.5507 32.6204L26.2368 32.2452C25.1419 30.9379 23.4724 28.6056 23.4727 25.4704C23.4728 23.2324 24.3212 20.5772 26.8544 17.5747H26.8545L26.8551 17.5739C33.0291 10.0955 40.8747 7.02764 45.1706 5.08848C49.4538 3.15463 56.8465 0.697451 59.2595 0.175179L59.2354 0.000148773Z" fill="white"/>
<path d="M23.9614 22.5027C20.4394 21.6388 17.488 19.3216 15.7788 16.2238C16.7453 14.7069 18.2981 13.232 20.3807 11.813C24.1166 9.26704 29.5672 6.89261 36.454 4.76993C37.1346 4.56025 37.8037 4.35975 38.4606 4.16775C39.0151 5.24623 39.421 6.41418 39.6523 7.64295C35.6453 9.67899 30.8925 12.6835 26.8551 17.5739L26.8545 17.5748H26.8544C25.3628 19.3427 24.4555 20.9898 23.9614 22.5027Z" fill="white"/>
<path d="M45.0977 4.92766C48.8858 3.21799 55.0615 1.11158 58.1484 0.271068C57.9896 0.28698 57.8206 0.304306 57.6293 0.324816C56.572 0.440443 55.0187 0.638109 53.0357 0.968373C49.0693 1.62961 43.3827 2.82018 36.5058 4.93932C29.6298 7.05811 24.1922 9.42901 20.4801 11.959C20.3465 12.0499 20.2204 12.1411 20.0916 12.2327C23.082 13.1839 26.9322 13.7334 29.9572 14.0417C35.4673 8.94634 41.528 6.53937 45.0977 4.92766Z" fill="white"/>
<path d="M46.514 47.8313C46.1062 47.8313 45.736 47.7577 45.4035 47.6104C45.071 47.4605 44.807 47.245 44.6115 46.9638C44.4159 46.68 44.3181 46.3373 44.3181 45.9357C44.3181 45.5823 44.3908 45.2958 44.536 45.0762C44.6813 44.854 44.8755 44.68 45.1185 44.5541C45.3616 44.4283 45.6298 44.3346 45.9232 44.273C46.2193 44.2087 46.5168 44.1579 46.8158 44.1204C47.2069 44.0722 47.524 44.036 47.7671 44.0119C48.0129 43.9852 48.1917 43.941 48.3035 43.8794C48.418 43.8178 48.4753 43.7107 48.4753 43.5581V43.526C48.4753 43.1297 48.3621 42.8218 48.1358 42.6023C47.9123 42.3827 47.5729 42.2729 47.1175 42.2729C46.6454 42.2729 46.2752 42.372 46.007 42.5701C45.7388 42.7683 45.5502 42.9798 45.4412 43.2047L44.5025 42.8834C44.6701 42.5086 44.8936 42.2167 45.173 42.0079C45.4552 41.7964 45.7625 41.6491 46.095 41.5661C46.4302 41.4804 46.7599 41.4376 47.084 41.4376C47.2907 41.4376 47.5282 41.4617 47.7964 41.5099C48.0674 41.5554 48.3286 41.6504 48.5801 41.795C48.8343 41.9396 49.0452 42.1578 49.2129 42.4497C49.3805 42.7415 49.4643 43.1324 49.4643 43.6224V47.6867H48.4753V46.8514H48.425C48.358 46.9852 48.2462 47.1285 48.0898 47.2811C47.9333 47.4337 47.7252 47.5636 47.4653 47.6707C47.2055 47.7778 46.8884 47.8313 46.514 47.8313ZM46.6649 46.9799C47.056 46.9799 47.3857 46.9063 47.6539 46.759C47.9249 46.6117 48.1289 46.4216 48.2658 46.1887C48.4055 45.9558 48.4753 45.7108 48.4753 45.4537V44.5863C48.4334 44.6344 48.3412 44.6786 48.1987 44.7188C48.059 44.7563 47.897 44.7897 47.7126 44.8192C47.531 44.846 47.3536 44.8701 47.1804 44.8915C47.0099 44.9102 46.8717 44.9263 46.7655 44.9397C46.5085 44.9718 46.2682 45.024 46.0447 45.0963C45.824 45.1659 45.6452 45.2717 45.5083 45.4136C45.3742 45.5528 45.3071 45.7429 45.3071 45.9839C45.3071 46.3132 45.4342 46.5622 45.6885 46.7309C45.9455 46.8969 46.271 46.9799 46.6649 46.9799Z" fill="white"/>
<path d="M54.7226 47.6867V39.4616H59.8688V40.3452H55.7619V43.1244H59.4832V44.0079H55.7619V47.6867H54.7226Z" fill="white"/>
<path d="M65.1679 45.1646V41.5179H66.1569V47.6867H65.1679V46.6425H65.1009C64.95 46.9558 64.7153 47.2222 64.3968 47.4417C64.0783 47.6586 63.676 47.7671 63.1899 47.7671C62.7876 47.7671 62.43 47.6827 62.1171 47.514C61.8042 47.3427 61.5583 47.0856 61.3795 46.7429C61.2007 46.3975 61.1113 45.9625 61.1113 45.4377V41.5179H62.1003V45.3734C62.1003 45.8232 62.2316 46.182 62.4943 46.4498C62.7597 46.7175 63.0977 46.8514 63.5084 46.8514C63.7543 46.8514 64.0043 46.7911 64.2585 46.6706C64.5156 46.5502 64.7307 46.3654 64.9039 46.1164C65.0799 45.8674 65.1679 45.5501 65.1679 45.1646Z" fill="white"/>
<path d="M67.9684 41.5179H68.9574V48.1365C68.9574 48.5167 68.8889 48.8461 68.752 49.1245C68.6179 49.403 68.414 49.6185 68.1402 49.7711C67.8692 49.9237 67.5269 50 67.1135 50C67.0799 50 67.0464 50 67.0129 50C66.9794 50 66.9458 50 66.9123 50V49.1165C66.9458 49.1165 66.9766 49.1165 67.0045 49.1165C67.0324 49.1165 67.0632 49.1165 67.0967 49.1165C67.3984 49.1165 67.6191 49.0308 67.7588 48.8595C67.8985 48.6908 67.9684 48.4498 67.9684 48.1365V41.5179ZM68.4545 40.4898C68.2617 40.4898 68.0955 40.4268 67.9558 40.301C67.8189 40.1752 67.7505 40.0239 67.7505 39.8472C67.7505 39.6705 67.8189 39.5192 67.9558 39.3933C68.0955 39.2675 68.2617 39.2046 68.4545 39.2046C68.6473 39.2046 68.8121 39.2675 68.949 39.3933C69.0887 39.5192 69.1585 39.6705 69.1585 39.8472C69.1585 40.0239 69.0887 40.1752 68.949 40.301C68.8121 40.4268 68.6473 40.4898 68.4545 40.4898Z" fill="white"/>
<path d="M70.7688 47.6867V41.5179H71.7578V47.6867H70.7688ZM71.2717 40.4898C71.0789 40.4898 70.9127 40.4268 70.773 40.301C70.6361 40.1752 70.5677 40.0239 70.5677 39.8472C70.5677 39.6705 70.6361 39.5192 70.773 39.3933C70.9127 39.2675 71.0789 39.2046 71.2717 39.2046C71.4645 39.2046 71.6293 39.2675 71.7662 39.3933C71.9059 39.5192 71.9757 39.6705 71.9757 39.8472C71.9757 40.0239 71.9059 40.1752 71.7662 40.301C71.6293 40.4268 71.4645 40.4898 71.2717 40.4898Z" fill="white"/>
<path d="M76.3686 41.5179V42.3211H73.0328V41.5179H76.3686ZM74.0051 40.04H74.9941V45.9196C74.9941 46.1874 75.0346 46.3882 75.1156 46.522C75.1994 46.6532 75.3056 46.7416 75.4341 46.7871C75.5654 46.83 75.7037 46.8514 75.849 46.8514C75.958 46.8514 76.0474 46.846 76.1172 46.8353C76.187 46.8219 76.2429 46.8112 76.2848 46.8032L76.486 47.6546C76.4189 47.6787 76.3253 47.7028 76.2052 47.7269C76.0851 47.7537 75.9328 47.7671 75.7484 47.7671C75.469 47.7671 75.1952 47.7095 74.927 47.5944C74.6616 47.4792 74.4409 47.3039 74.2649 47.0682C74.0917 46.8326 74.0051 46.5354 74.0051 46.1767V40.04Z" fill="white"/>
<path d="M82.3006 42.8995L81.4122 43.1404C81.3563 42.9985 81.2739 42.8606 81.1649 42.7268C81.0587 42.5902 80.9135 42.4778 80.7291 42.3894C80.5447 42.3011 80.3086 42.2569 80.0208 42.2569C79.6269 42.2569 79.2986 42.3439 79.036 42.5179C78.7762 42.6893 78.6463 42.9075 78.6463 43.1726C78.6463 43.4082 78.7357 43.5943 78.9145 43.7308C79.0933 43.8674 79.3727 43.9812 79.7526 44.0722L80.7081 44.2971C81.2836 44.431 81.7125 44.6358 81.9947 44.9116C82.2768 45.1847 82.4179 45.5367 82.4179 45.9678C82.4179 46.3212 82.3118 46.6372 82.0994 46.9156C81.8899 47.1941 81.5965 47.4136 81.2194 47.5743C80.8422 47.7349 80.4036 47.8153 79.9035 47.8153C79.247 47.8153 78.7036 47.6787 78.2733 47.4056C77.8431 47.1325 77.5707 46.7336 77.4561 46.2088L78.3948 45.9839C78.4842 46.3159 78.6533 46.5649 78.9019 46.7309C79.1534 46.8969 79.4816 46.9799 79.8867 46.9799C80.3477 46.9799 80.7137 46.8862 80.9847 46.6988C81.2585 46.5087 81.3954 46.2811 81.3954 46.016C81.3954 45.8018 81.3172 45.6224 81.1607 45.4778C81.0043 45.3306 80.764 45.2208 80.4399 45.1485L79.3671 44.9075C78.7776 44.7737 78.3446 44.5662 78.068 44.285C77.7942 44.0012 77.6573 43.6465 77.6573 43.2208C77.6573 42.8727 77.7593 42.5648 77.9632 42.297C78.1699 42.0293 78.4507 41.8191 78.8055 41.6665C79.1631 41.5139 79.5682 41.4376 80.0208 41.4376C80.6578 41.4376 81.1579 41.5715 81.5211 41.8392C81.8871 42.1069 82.1469 42.4604 82.3006 42.8995Z" fill="white"/>
<path d="M87.9633 45.1646V41.5179H88.9523V47.6867H87.9633V46.6425H87.8962C87.7454 46.9558 87.5107 47.2222 87.1922 47.4417C86.8737 47.6586 86.4714 47.7671 85.9853 47.7671C85.583 47.7671 85.2253 47.6827 84.9124 47.514C84.5995 47.3427 84.3537 47.0856 84.1749 46.7429C83.9961 46.3975 83.9067 45.9625 83.9067 45.4377V41.5179H84.8957V45.3734C84.8957 45.8232 85.027 46.182 85.2896 46.4498C85.555 46.7175 85.8931 46.8514 86.3038 46.8514C86.5496 46.8514 86.7997 46.7911 87.0539 46.6706C87.3109 46.5502 87.5261 46.3654 87.6993 46.1164C87.8753 45.8674 87.9633 45.5501 87.9633 45.1646Z" fill="white"/>
<path d="M96.6978 47.8153C96.0943 47.8153 95.5747 47.6787 95.1388 47.4056C94.703 47.1325 94.3677 46.7563 94.133 46.2771C93.8984 45.7978 93.781 45.2503 93.781 44.6344C93.781 44.0079 93.9012 43.455 94.1414 42.9758C94.3845 42.4938 94.7225 42.1176 95.1556 41.8472C95.5914 41.5741 96.0999 41.4376 96.681 41.4376C97.1336 41.4376 97.5415 41.5179 97.9047 41.6785C98.2679 41.8392 98.5654 42.0641 98.7973 42.3533C99.0292 42.6424 99.1731 42.9798 99.2289 43.3653H98.2399C98.1645 43.0842 97.9969 42.8352 97.7371 42.6183C97.48 42.3988 97.1336 42.289 96.6978 42.289C96.3122 42.289 95.9742 42.3854 95.6836 42.5782C95.3958 42.7683 95.1709 43.0374 95.0089 43.3854C94.8497 43.7308 94.77 44.1364 94.77 44.6023C94.77 45.0789 94.8483 45.4939 95.0047 45.8473C95.164 46.2008 95.3875 46.4752 95.6752 46.6706C95.9658 46.8661 96.3066 46.9638 96.6978 46.9638C96.9548 46.9638 97.1881 46.921 97.3976 46.8353C97.6071 46.7496 97.7845 46.6265 97.9298 46.4658C98.0751 46.3052 98.1785 46.1124 98.2399 45.8875H99.2289C99.1731 46.2516 99.0348 46.5796 98.8141 46.8715C98.5961 47.1606 98.307 47.3909 97.9466 47.5622C97.589 47.7309 97.1727 47.8153 96.6978 47.8153Z" fill="white"/>
<path d="M103.29 47.8153C102.709 47.8153 102.199 47.6827 101.76 47.4177C101.324 47.1526 100.983 46.7818 100.738 46.3052C100.495 45.8286 100.373 45.2717 100.373 44.6344C100.373 43.9919 100.495 43.4309 100.738 42.9517C100.983 42.4724 101.324 42.1002 101.76 41.8352C102.199 41.5701 102.709 41.4376 103.29 41.4376C103.871 41.4376 104.379 41.5701 104.815 41.8352C105.254 42.1002 105.595 42.4724 105.838 42.9517C106.084 43.4309 106.206 43.9919 106.206 44.6344C106.206 45.2717 106.084 45.8286 105.838 46.3052C105.595 46.7818 105.254 47.1526 104.815 47.4177C104.379 47.6827 103.871 47.8153 103.29 47.8153ZM103.29 46.9638C103.731 46.9638 104.094 46.8554 104.379 46.6385C104.664 46.4216 104.875 46.1365 105.012 45.7831C105.149 45.4296 105.217 45.0468 105.217 44.6344C105.217 44.2221 105.149 43.8379 105.012 43.4818C104.875 43.1257 104.664 42.8379 104.379 42.6183C104.094 42.3988 103.731 42.289 103.29 42.289C102.848 42.289 102.485 42.3988 102.2 42.6183C101.915 42.8379 101.704 43.1257 101.567 43.4818C101.43 43.8379 101.362 44.2221 101.362 44.6344C101.362 45.0468 101.43 45.4296 101.567 45.7831C101.704 46.1365 101.915 46.4216 102.2 46.6385C102.485 46.8554 102.848 46.9638 103.29 46.9638Z" fill="white"/>
<path d="M107.716 47.6867V41.5179H108.672V42.4818H108.755C108.89 42.1525 109.106 41.8968 109.405 41.7147C109.704 41.53 110.063 41.4376 110.482 41.4376C110.907 41.4376 111.26 41.53 111.542 41.7147C111.827 41.8968 112.049 42.1525 112.209 42.4818H112.276C112.44 42.1632 112.688 41.9101 113.017 41.7227C113.347 41.5326 113.742 41.4376 114.203 41.4376C114.779 41.4376 115.25 41.6103 115.616 41.9557C115.982 42.2984 116.165 42.8325 116.165 43.5581V47.6867H115.176V43.5581C115.176 43.1029 115.046 42.7776 114.786 42.5822C114.526 42.3867 114.22 42.289 113.868 42.289C113.416 42.289 113.065 42.4202 112.816 42.6826C112.568 42.9423 112.443 43.2716 112.443 43.6706V47.6867H111.438V43.4617C111.438 43.111 111.319 42.8285 111.081 42.6143C110.844 42.3974 110.538 42.289 110.164 42.289C109.907 42.289 109.666 42.3546 109.443 42.4858C109.222 42.617 109.043 42.7991 108.906 43.032C108.772 43.2623 108.705 43.5287 108.705 43.8312V47.6867H107.716Z" fill="white"/>
<path d="M117.973 50V41.5179H118.928V42.4978H119.046C119.118 42.3907 119.219 42.2542 119.347 42.0882C119.479 41.9195 119.666 41.7696 119.909 41.6384C120.155 41.5045 120.487 41.4376 120.906 41.4376C121.448 41.4376 121.926 41.5674 122.34 41.8271C122.753 42.0869 123.076 42.455 123.308 42.9316C123.54 43.4082 123.656 43.9704 123.656 44.6184C123.656 45.2717 123.54 45.838 123.308 46.3172C123.076 46.7938 122.755 47.1633 122.344 47.4257C121.933 47.6854 121.46 47.8153 120.923 47.8153C120.51 47.8153 120.179 47.7497 119.93 47.6185C119.681 47.4846 119.49 47.3333 119.356 47.1646C119.222 46.9933 119.118 46.8514 119.046 46.7389H118.962V50H117.973ZM118.945 44.6023C118.945 45.0682 119.016 45.4792 119.159 45.8353C119.301 46.1887 119.51 46.4658 119.783 46.6666C120.057 46.8648 120.392 46.9638 120.789 46.9638C121.203 46.9638 121.548 46.8594 121.824 46.6506C122.104 46.439 122.313 46.1552 122.453 45.7991C122.595 45.4404 122.667 45.0414 122.667 44.6023C122.667 44.1686 122.597 43.7777 122.457 43.4296C122.32 43.0789 122.112 42.8017 121.833 42.5983C121.556 42.3921 121.208 42.289 120.789 42.289C120.387 42.289 120.049 42.3867 119.775 42.5822C119.501 42.775 119.294 43.0454 119.155 43.3935C119.015 43.7388 118.945 44.1418 118.945 44.6023Z" fill="white"/>
<path d="M127.058 47.8313C126.65 47.8313 126.28 47.7577 125.948 47.6104C125.615 47.4605 125.351 47.245 125.156 46.9638C124.96 46.68 124.862 46.3373 124.862 45.9357C124.862 45.5823 124.935 45.2958 125.08 45.0762C125.226 44.854 125.42 44.68 125.663 44.5541C125.906 44.4283 126.174 44.3346 126.467 44.273C126.764 44.2087 127.061 44.1579 127.36 44.1204C127.751 44.0722 128.068 44.036 128.311 44.0119C128.557 43.9852 128.736 43.941 128.848 43.8794C128.962 43.8178 129.02 43.7107 129.02 43.5581V43.526C129.02 43.1297 128.906 42.8218 128.68 42.6023C128.457 42.3827 128.117 42.2729 127.662 42.2729C127.19 42.2729 126.82 42.372 126.551 42.5701C126.283 42.7683 126.095 42.9798 125.986 43.2047L125.047 42.8834C125.214 42.5086 125.438 42.2167 125.717 42.0079C126 41.7964 126.307 41.6491 126.639 41.5661C126.975 41.4804 127.304 41.4376 127.628 41.4376C127.835 41.4376 128.073 41.4617 128.341 41.5099C128.612 41.5554 128.873 41.6504 129.124 41.795C129.379 41.9396 129.59 42.1578 129.757 42.4497C129.925 42.7415 130.009 43.1324 130.009 43.6224V47.6867H129.02V46.8514H128.969C128.902 46.9852 128.791 47.1285 128.634 47.2811C128.478 47.4337 128.269 47.5636 128.01 47.6707C127.75 47.7778 127.433 47.8313 127.058 47.8313ZM127.209 46.9799C127.6 46.9799 127.93 46.9063 128.198 46.759C128.469 46.6117 128.673 46.4216 128.81 46.1887C128.95 45.9558 129.02 45.7108 129.02 45.4537V44.5863C128.978 44.6344 128.886 44.6786 128.743 44.7188C128.603 44.7563 128.441 44.7897 128.257 44.8192C128.075 44.846 127.898 44.8701 127.725 44.8915C127.554 44.9102 127.416 44.9263 127.31 44.9397C127.053 44.9718 126.813 45.024 126.589 45.0963C126.368 45.1659 126.19 45.2717 126.053 45.4136C125.919 45.5528 125.851 45.7429 125.851 45.9839C125.851 46.3132 125.979 46.5622 126.233 46.7309C126.49 46.8969 126.815 46.9799 127.209 46.9799Z" fill="white"/>
<path d="M132.803 43.9758V47.6867H131.814V41.5179H132.769V42.4818H132.853C133.004 42.1685 133.233 41.9168 133.54 41.7267C133.848 41.534 134.244 41.4376 134.731 41.4376C135.166 41.4376 135.548 41.5233 135.875 41.6946C136.201 41.8633 136.456 42.1203 136.637 42.4657C136.819 42.8084 136.91 43.2422 136.91 43.767V47.6867H135.921V43.8312C135.921 43.3466 135.789 42.9691 135.527 42.6987C135.264 42.4256 134.904 42.289 134.446 42.289C134.13 42.289 133.848 42.3546 133.599 42.4858C133.353 42.617 133.159 42.8084 133.017 43.0601C132.874 43.3118 132.803 43.617 132.803 43.9758Z" fill="white"/>
<path d="M139.123 50C138.956 50 138.806 49.9867 138.675 49.9599C138.544 49.9358 138.453 49.9117 138.403 49.8876L138.654 49.0522C138.894 49.1111 139.107 49.1326 139.291 49.1165C139.475 49.1004 139.639 49.0214 139.781 48.8795C139.927 48.7403 140.059 48.5141 140.179 48.2008L140.364 47.7189L137.984 41.5179H139.056L140.833 46.4337H140.9L142.677 41.5179H143.75L141.018 48.5864C140.895 48.905 140.742 49.1687 140.561 49.3775C140.379 49.5891 140.168 49.7457 139.928 49.8474C139.691 49.9492 139.422 50 139.123 50Z" fill="white"/>
</svg>
